<svg width="229" height="40" viewBox="0 0 229 40" fill="none" xmlns="http://www.w3.org/2000/svg">
<path d="M8 8V0H32V8H8ZM8 40V32H0V8H8V32H24V24H16V16H32V40H8ZM46.08 40H38.08V0H46.08V40ZM68.16 40H60.16V8H52.16V0H76.16V8H68.16V40ZM114.24 32V40H82.24V0H114.24V8H90.24V16H106.24V24H90.24V32H114.24ZM128.32 8V0H144.32V8H128.32ZM128.32 40H120.32V8H128.32V16H144.32V8H152.32V40H144.32V24H128.32V40ZM166.4 40H158.4V0H182.4V8H166.4V16H182.4V24H166.4V40ZM190.4 16H182.4V8H190.4V16ZM190.4 40H182.4V24H190.4V40ZM204.48 40H196.48V0H204.48V8H212.48V16H204.48V40ZM228.48 40H220.48V24H212.48V16H220.48V0H228.48V40Z" fill="black"/>
</svg>
